# xmcd
#
# Track frame offsets: 
#        150
#        21730
#        34030
#        44725
#        58309
#        71316
#        88704
#        102773
#        114228
#        133176
#        146651
#        154617
#        169795
#        184939
#        199396
#        221172
#
# Disc length: 3274 seconds
#
# Revision: 1
# Processed by: cddbd v1.5.1PL2 Copyright (c) Steve Scherf et al.
# Submitted via: ExactAudioCopy v0.95b3
#
DISCID=f50cc810
DTITLE=100 Folk Celsius - Country
DYEAR=1981
DGENRE=Rock and Roll
TTITLE0=Drága otthon
TTITLE1=Hé fiú, adj neki bátran!
TTITLE2=Centrifuga (Foggy Mountain Breakdown)
TTITLE3=Nincs jobb lány, mint a Jo-jo
TTITLE4=Erdei virág
TTITLE5=Száz meglepetést hoz a nyár
TTITLE6=A jó öreg gépem
TTITLE7=Mikor Szekszárdra készültem
TTITLE8=Lakótelep
TTITLE9=Nagy-budapesti aszfalt-country
TTITLE10=Párbaj
TTITLE11=Országút vándora
TTITLE12=A jó öreg tér
TTITLE13=Jöttem sehonnan
TTITLE14=Orange Blossom Special
TTITLE15=Fiam, ha nõsz még egy kicsit...
EXTD=
EXTT0=
EXTT1=
EXTT2=
EXTT3=
EXTT4=
EXTT5=
EXTT6=
EXTT7=
EXTT8=
EXTT9=
EXTT10=
EXTT11=
EXTT12=
EXTT13=
EXTT14=
EXTT15=
PLAYORDER=
